<svg width="23" height="17" viewBox="0 0 23 17" fill="none" xmlns="http://www.w3.org/2000/svg">
<path d="M22.3093 3.07808C22.0655 2.10308 21.2936 1.3312 20.3593 1.08745C18.6124 0.59995 11.7061 0.59995 11.7061 0.59995C11.7061 0.59995 4.75927 0.59995 3.0124 1.08745C2.07802 1.3312 1.30615 2.10308 1.0624 3.07808C0.574896 4.78433 0.574896 8.44058 0.574896 8.44058C0.574896 8.44058 0.574896 12.0562 1.0624 13.8031C1.30615 14.7781 2.07802 15.5093 3.0124 15.7531C4.75927 16.2 11.7061 16.2 11.7061 16.2C11.7061 16.2 18.6124 16.2 20.3593 15.7531C21.2936 15.5093 22.0655 14.7781 22.3093 13.8031C22.7968 12.0562 22.7968 8.44058 22.7968 8.44058C22.7968 8.44058 22.7968 4.78433 22.3093 3.07808ZM9.43115 11.7312V5.14995L15.1999 8.44058L9.43115 11.7312Z" fill="#FF592C"/>
</svg>
