<svg width="19" height="19" viewBox="0 0 19 19" fill="none" xmlns="http://www.w3.org/2000/svg">
<path d="M17.4014 0.29995H1.76073C1.07011 0.29995 0.501355 0.909325 0.501355 1.64058V17.2C0.501355 17.9312 1.07011 18.5 1.76073 18.5H17.4014C18.092 18.5 18.7014 17.9312 18.7014 17.2V1.64058C18.7014 0.909325 18.092 0.29995 17.4014 0.29995ZM5.98573 15.9H3.30448V7.24683H5.98573V15.9ZM4.64511 6.02808C3.75136 6.02808 3.06073 5.33745 3.06073 4.48433C3.06073 3.6312 3.75136 2.89995 4.64511 2.89995C5.49823 2.89995 6.18886 3.6312 6.18886 4.48433C6.18886 5.33745 5.49823 6.02808 4.64511 6.02808ZM16.1014 15.9H13.3795V11.675C13.3795 10.7 13.3795 9.39995 11.9982 9.39995C10.5764 9.39995 10.3732 10.4968 10.3732 11.6343V15.9H7.69198V7.24683H10.2514V8.42495H10.292C10.6576 7.73433 11.5514 7.00308 12.8514 7.00308C15.5732 7.00308 16.1014 8.8312 16.1014 11.1468V15.9Z" fill="#2A2618"/>
</svg>
