<svg width="22" height="18" viewBox="0 0 22 18" fill="none" xmlns="http://www.w3.org/2000/svg">
<path d="M19.579 5.17495C20.3915 4.56558 21.1228 3.83433 21.6915 2.9812C20.9603 3.3062 20.1071 3.54995 19.254 3.6312C20.1478 3.10308 20.7978 2.29058 21.1228 1.27495C20.3103 1.76245 19.3759 2.12808 18.4415 2.3312C17.629 1.47808 16.5321 0.990575 15.3134 0.990575C12.9571 0.990575 11.0478 2.89995 11.0478 5.2562C11.0478 5.5812 11.0884 5.9062 11.1696 6.2312C7.63525 6.02808 4.4665 4.32183 2.354 1.76245C1.98838 2.37183 1.78525 3.10308 1.78525 3.91558C1.78525 5.37808 2.5165 6.67808 3.69463 7.44995C3.004 7.40933 2.31338 7.24683 1.74463 6.92183V6.96245C1.74463 9.03433 3.20713 10.7406 5.15713 11.1468C4.83213 11.2281 4.42588 11.3093 4.06025 11.3093C3.77588 11.3093 3.53213 11.2687 3.24775 11.2281C3.77588 12.9343 5.36025 14.1531 7.229 14.1937C5.7665 15.3312 3.93838 16.0218 1.94775 16.0218C1.58213 16.0218 1.25713 15.9812 0.932126 15.9406C2.80088 17.1593 5.03525 17.85 7.47275 17.85C15.3134 17.85 19.579 11.3906 19.579 5.7437C19.579 5.54058 19.579 5.37808 19.579 5.17495Z" fill="#2A2618"/>
</svg>
